<svg width="19" height="20" viewBox="0 0 19 20" fill="none" xmlns="http://www.w3.org/2000/svg">
<path d="M5.59087 19.5033C4.11694 19.5487 2.68482 19.0095 1.60687 18.0033C1.0723 17.4679 0.65366 16.8282 0.377018 16.1241C0.100377 15.4199 -0.0283432 14.6663 -0.00112679 13.9103V6.05828C-0.0460495 5.31725 0.0667904 4.57512 0.329937 3.88093C0.593084 3.18674 1.00055 2.5563 1.5254 2.03125C2.05026 1.50621 2.68055 1.09852 3.37465 0.835124C4.06874 0.571727 4.81083 0.45862 5.55187 0.503276H13.4449C14.1867 0.477659 14.926 0.603782 15.6175 0.873918C16.3089 1.14405 16.9379 1.55252 17.4659 2.07428C17.9744 2.60237 18.3721 3.22696 18.6354 3.91121C18.8987 4.59545 19.0223 5.3255 18.9989 6.05828V13.9493C19.0276 14.6964 18.9031 15.4414 18.6331 16.1386C18.3631 16.8358 17.9533 17.4704 17.4289 18.0033C16.3375 19.0126 14.8926 19.5514 13.4069 19.5033H5.59087ZM2.79887 3.26228C2.44703 3.63543 2.1741 4.07575 1.99643 4.55687C1.81876 5.03798 1.74 5.55 1.76487 6.06228V13.9153C1.73785 14.432 1.81552 14.9489 1.9932 15.4348C2.17088 15.9208 2.44492 16.3658 2.79887 16.7433C3.5664 17.4285 4.57094 17.7872 5.59887 17.7433H13.4149C14.4428 17.7871 15.4473 17.4284 16.2149 16.7433C16.5833 16.3796 16.8723 15.9434 17.0635 15.4623C17.2548 14.9812 17.3441 14.4657 17.3259 13.9483V6.05828C17.3452 5.03929 16.9701 4.05225 16.2789 3.30328C15.9058 2.95129 15.4655 2.67827 14.9844 2.50059C14.5032 2.32291 13.9912 2.24423 13.4789 2.26928H5.59087C4.5656 2.21862 3.56191 2.57559 2.79887 3.26228ZM4.59887 9.96228C4.59887 8.99315 4.88625 8.04578 5.42467 7.23998C5.96309 6.43418 6.72837 5.80614 7.62372 5.43527C8.51908 5.0644 9.50431 4.96736 10.4548 5.15643C11.4053 5.3455 12.2784 5.81218 12.9637 6.49745C13.649 7.18273 14.1157 8.05583 14.3047 9.00633C14.4938 9.95684 14.3968 10.9421 14.0259 11.8374C13.655 12.7328 13.027 13.4981 12.2212 14.0365C11.4154 14.5749 10.468 14.8623 9.49887 14.8623C8.20072 14.8594 6.95653 14.3426 6.03832 13.425C5.1201 12.5073 4.60257 11.2634 4.59887 9.96528V9.96228ZM6.36187 9.96228C6.36148 10.5838 6.54546 11.1914 6.89053 11.7083C7.23561 12.2252 7.72626 12.6281 8.3004 12.866C8.87454 13.1039 9.50636 13.1662 10.1159 13.0449C10.7254 12.9236 11.2853 12.6242 11.7246 12.1846C12.1639 11.745 12.463 11.1849 12.5839 10.5753C12.7048 9.96572 12.6421 9.33394 12.4038 8.75996C12.1655 8.18597 11.7623 7.69557 11.2452 7.35082C10.7281 7.00608 10.1204 6.82248 9.49887 6.82328C8.66671 6.8267 7.86962 7.15886 7.28128 7.74739C6.69294 8.33592 6.36103 9.13311 6.35787 9.96528L6.36187 9.96228ZM13.4869 4.94228C13.4879 4.7228 13.5538 4.50853 13.6765 4.32651C13.7991 4.14449 13.9729 4.00287 14.1759 3.91951C14.379 3.83616 14.6021 3.81481 14.8173 3.85816C15.0325 3.90151 15.23 4.00762 15.3849 4.16309C15.5398 4.31857 15.6452 4.51644 15.6878 4.73175C15.7303 4.94706 15.7082 5.17016 15.6241 5.37289C15.54 5.57563 15.3978 5.74892 15.2153 5.87089C15.0329 5.99287 14.8184 6.05808 14.5989 6.05828C14.4524 6.0588 14.3073 6.0304 14.1719 5.97469C14.0364 5.91898 13.9133 5.83706 13.8096 5.73364C13.7059 5.63023 13.6237 5.50734 13.5676 5.37205C13.5115 5.23676 13.4827 5.09173 13.4829 4.94528L13.4869 4.94228Z" fill="#005CFF"/>
</svg>
